Coordinates
version=1
nRows=14
nColumns=46
inDegrees=yes

Units are S.I. units (second, meters, Newtons, ...)
Angles are in degrees.

endheader
time	pelvis_tilt	pelvis_list	pelvis_rotation	pelvis_tx	pelvis_ty	pelvis_tz	bb_angle	bb_tx	bb_ty	bb_tz	hip_flexion_r	hip_adduction_r	hip_rotation_r	knee_angle_r	knee_angle_r_beta	ankle_angle_r	subtalar_angle_r	mtp_angle_r	crank_angle_r	hip_flexion_l	hip_adduction_l	hip_rotation_l	knee_angle_l	knee_angle_l_beta	ankle_angle_l	subtalar_angle_l	mtp_angle_l	crank_angle_l	lumbar_extension	lumbar_bending	lumbar_rotation	arm_flex_r	arm_add_r	arm_rot_r	elbow_flex_r	pro_sup_r	wrist_flex_r	wrist_dev_r	arm_flex_l	arm_add_l	arm_rot_l	elbow_flex_l	pro_sup_l	wrist_flex_l	wrist_dev_l
      2.50500000	    -27.24023450	     -6.75129902	    -15.83294822	      0.31428460	      1.18655450	     -0.22167341	      0.00000000	      0.50000000	      0.00000000	      0.25000000	     73.78719450	     14.46601656	     -1.14232872	     96.19362850	      1.67889554	     14.36184172	     -7.42269040	      0.00000000	      0.00000000	     25.73677898	    -18.74558289	     -7.24161695	     22.09859517	      0.38569325	    -30.94632097	     -8.64400026	      0.00000000	      0.00000000	    -56.31091095	      0.19719448	     15.79058001	     57.08177942	    -25.32792320	     37.91271399	     83.67265650	     49.68258508	      0.00000000	      0.00000000	     38.56266467	    -30.72187708	     13.79836303	     81.44059018	     48.02715847	      0.00000000	      0.00000000
      2.51000000	    -27.27930810	     -6.87167053	    -15.95671536	      0.31350313	      1.18624544	     -0.22167348	      0.00000000	      0.50000000	      0.00000000	      0.25000000	     73.26564799	     14.76874737	     -1.25489052	     94.95847433	      1.65733803	     15.80813780	     -7.94637550	      0.00000000	      0.00000000	     26.73394475	    -18.82039544	     -6.18799767	     24.53253935	      0.42817359	    -30.61290510	    -10.25299691	      0.00000000	      0.00000000	    -56.83364356	      0.31723839	     15.52687958	     57.76318212	    -25.15393032	     38.59203702	     84.31719790	     49.74707605	      0.00000000	      0.00000000	     37.59630150	    -31.34277306	     12.43316633	     82.85800055	     48.28586898	      0.00000000	      0.00000000
      2.51500000	    -27.05196653	     -6.70741668	    -16.22949987	      0.31301066	      1.18602223	     -0.22134134	      0.00000000	      0.50000000	      0.00000000	      0.25000000	     72.45526328	     15.08826284	     -1.02612379	     93.71402535	      1.63561830	     17.24837886	     -8.79527209	      0.00000000	      0.00000000	     27.35316227	    -18.66573579	     -5.78731330	     26.85724396	      0.46874734	    -30.39593357	    -11.63423272	      0.00000000	      0.00000000	    -57.38779821	      0.03189423	     15.55245247	     57.98572187	    -25.11030414	     38.45498086	     84.71764407	     49.80341504	      0.00000000	      0.00000000	     37.66893754	    -31.56202821	     12.23921999	     83.03009932	     48.31033838	      0.00000000	      0.00000000
      2.52000000	    -27.24994691	     -6.89887235	    -16.19990487	      0.31223474	      1.18522376	     -0.22167567	      0.00000000	      0.50000000	      0.00000000	      0.25000000	     72.05394760	     15.23930881	     -1.39783708	     92.28543554	      1.61068470	     18.21121410	     -9.72410707	      0.00000000	      0.00000000	     28.72616659	    -18.75044846	     -4.64087996	     29.48647229	      0.51463603	    -30.33691003	    -13.35448434	      0.00000000	      0.00000000	    -57.82872398	      0.35210773	     15.65671487	     58.04426537	    -25.37894588	     38.20791578	     86.45924219	     50.08918430	      0.00000000	      0.00000000	     36.99800309	    -32.08419721	     11.62490732	     84.29110089	     48.52889591	      0.00000000	      0.00000000
      2.52500000	    -27.17379685	     -6.74061589	    -16.35562480	      0.31165941	      1.18446002	     -0.22174483	      0.00000000	      0.50000000	      0.00000000	      0.25000000	     71.44581664	     15.46005277	     -1.20232215	     90.98220728	      1.58793908	     19.20344723	    -10.43869540	      0.00000000	      0.00000000	     29.63554149	    -18.52240344	     -4.01748459	     31.89878837	      0.55673888	    -30.21694464	    -14.66238175	      0.00000000	      0.00000000	    -58.37145476	      0.18072558	     15.56001998	     57.91727495	    -25.72002319	     37.86529282	     88.24381550	     50.38232925	      0.00000000	      0.00000000	     36.24641957	    -32.44056237	     10.57398589	     85.88917705	     48.78936112	      0.00000000	      0.00000000
      2.53000000	    -26.87511160	     -6.33431429	    -16.57823660	      0.31148730	      1.18395953	     -0.22177854	      0.00000000	      0.50000000	      0.00000000	      0.25000000	     70.61217653	     15.60631070	     -0.71110734	     89.70759380	      1.56569288	     20.21311947	    -11.12026345	      0.00000000	      0.00000000	     30.17699964	    -18.08715706	     -3.90898147	     34.05922890	      0.59444569	    -30.22945461	    -15.53879219	      0.00000000	      0.00000000	    -58.89977269	     -0.19216170	     15.34159472	     58.02246568	    -25.70516998	     37.68068629	     88.53168683	     50.41306464	      0.00000000	      0.00000000	     36.23240731	    -32.52794900	     10.38533106	     85.98689741	     48.79783415	      0.00000000	      0.00000000
      2.53500000	    -26.93679245	     -6.17314861	    -16.60472339	      0.31089816	      1.18262885	     -0.22230395	      0.00000000	      0.50000000	      0.00000000	      0.25000000	     70.25650947	     15.60146740	     -0.69085696	     88.42327770	      1.54327733	     20.59757073	    -12.06868589	      0.00000000	      0.00000000	     31.35152079	    -17.81116056	     -3.20485521	     36.52224337	      0.63743340	    -30.11617455	    -16.81935979	      0.00000000	      0.00000000	    -59.38414754	     -0.18083885	     15.11888150	     57.92401088	    -26.07194833	     37.15699663	     90.80088191	     50.76636792	      0.00000000	      0.00000000	     35.08936391	    -32.97055383	      8.85074186	     88.05829256	     49.12501841	      0.00000000	      0.00000000
      2.54000000	    -26.85857662	     -5.84869424	    -16.62679442	      0.31034222	      1.18126937	     -0.22296593	      0.00000000	      0.50000000	      0.00000000	      0.25000000	     69.82745721	     15.53653267	     -0.39554241	     87.24384119	      1.52269228	     20.97917743	    -12.74927993	      0.00000000	      0.00000000	     32.33414951	    -17.34320262	     -2.60795785	     38.83824908	      0.67785532	    -30.11415629	    -17.69284159	      0.00000000	      0.00000000	    -59.73996351	     -0.23873545	     14.85602904	     58.04999566	    -26.22707174	     36.96695635	     91.87730749	     50.93628163	      0.00000000	      0.00000000	     34.62977812	    -33.25371187	      8.28264784	     88.75327022	     49.24787870	      0.00000000	      0.00000000
      2.54500000	    -26.81313871	     -5.53199641	    -16.66290973	      0.30961994	      1.17963485	     -0.22356807	      0.00000000	      0.50000000	      0.00000000	      0.25000000	     69.50982142	     15.45256491	     -0.11291770	     86.11551246	      1.50299923	     21.31134419	    -13.10497900	      0.00000000	      0.00000000	     33.35076042	    -16.92314615	     -2.03454836	     41.15052717	      0.71821219	    -30.01648451	    -18.31557648	      0.00000000	      0.00000000	    -60.03278325	     -0.31650359	     14.62952422	     58.09748439	    -26.43297620	     36.67628377	     92.96847202	     51.09550681	      0.00000000	      0.00000000	     34.16654931	    -33.47990845	      7.70783429	     89.52999237	     49.37457423	      0.00000000	      0.00000000
      2.55000000	    -26.77834356	     -5.22764758	    -16.63036834	      0.30893936	      1.17763469	     -0.22435717	      0.00000000	      0.50000000	      0.00000000	      0.25000000	     69.27205555	     15.27344528	      0.12261877	     85.09402869	      1.48517097	     21.51919960	    -13.39295890	      0.00000000	      0.00000000	     34.40893087	    -16.50403445	     -1.44096893	     43.48489098	      0.75895452	    -29.84838401	    -18.74376666	      0.00000000	      0.00000000	    -60.26492295	     -0.27591483	     14.43671321	     58.12476033	    -26.68252513	     36.36450141	     94.18489738	     51.27082245	      0.00000000	      0.00000000	     33.64527041	    -33.70107906	      7.08629823	     90.37099347	     49.50556761	      0.00000000	      0.00000000
      2.55500000	    -26.73166070	     -4.92043316	    -16.62300174	      0.30835881	      1.17558452	     -0.22515632	      0.00000000	      0.50000000	      0.00000000	      0.25000000	     69.02944068	     15.18778734	      0.54756838	     84.05329572	      1.46700676	     21.49650907	    -13.60652493	      0.00000000	      0.00000000	     35.34440564	    -16.08920250	     -0.89706779	     45.65785341	      0.79687987	    -29.49963127	    -18.91653523	      0.00000000	      0.00000000	    -60.51515794	     -0.29617068	     14.20448976	     58.01026273	    -26.94214682	     36.02379314	     95.36618224	     51.43851633	      0.00000000	      0.00000000	     33.01565740	    -33.82076081	      6.40927152	     91.30640083	     49.65644144	      0.00000000	      0.00000000
      2.56000000	    -26.51671596	     -4.53774410	    -16.63464976	      0.30790226	      1.17355075	     -0.22613261	      0.00000000	      0.50000000	      0.00000000	      0.25000000	     68.66047444	     15.00473881	      1.08192085	     83.09073892	      1.45020697	     21.47908106	    -13.59184792	      0.00000000	      0.00000000	     36.05696986	    -15.59029526	     -0.58952642	     47.78629614	      0.83402820	    -29.12420774	    -19.12964032	      0.00000000	      0.00000000	    -60.79787284	     -0.35307877	     13.95493031	     58.12712069	    -27.09534366	     35.77181844	     95.94408315	     51.50770440	      0.00000000	      0.00000000	     32.79066204	    -33.89305307	      6.13570967	     91.60863977	     49.70088501	      0.00000000	      0.00000000
      2.56500000	    -26.54854555	     -4.26526030	    -16.46129285	      0.30740850	      1.17079241	     -0.22736225	      0.00000000	      0.50000000	      0.00000000	      0.25000000	     68.60414391	     14.73540088	      1.44036113	     82.22894418	      1.43516582	     21.29294707	    -13.56204115	      0.00000000	      0.00000000	     37.15640682	    -15.18053802	     -0.07643867	     50.07621685	      0.87399486	    -28.38626592	    -18.72878379	      0.00000000	      0.00000000	    -60.87507710	     -0.12592358	     13.68321973	     57.77171944	    -27.44522423	     35.38550954	     97.40830124	     51.71239865	      0.00000000	      0.00000000	     31.98143392	    -34.03321576	      5.46528287	     92.58092537	     49.84611991	      0.00000000	      0.00000000
      2.57000000	    -26.30994275	     -3.97328775	    -16.28486995	      0.30722371	      1.16827745	     -0.22860135	      0.00000000	      0.50000000	      0.00000000	      0.25000000	     68.23453627	     14.48217965	      1.99362242	     81.39791089	      1.42066155	     21.06304224	    -13.55990417	      0.00000000	      0.00000000	     37.85667253	    -14.72562898	      0.18489884	     52.22501401	      0.91149845	    -27.62807659	    -18.53243066	      0.00000000	      0.00000000	    -61.19885449	      0.00094006	     13.37595644	     57.55229539	    -27.77180338	     35.00006357	     98.66133730	     51.87767776	      0.00000000	      0.00000000	     31.26540285	    -34.03907333	      4.72699603	     93.62076496	     50.00560377	      0.00000000	      0.00000000
